<svg width="267" height="267" viewBox="0 0 267 267" fill="none" xmlns="http://www.w3.org/2000/svg">
<path fill-rule="evenodd" clip-rule="evenodd" d="M131.966 37.6837C89.179 37.6837 53.8197 75.3898 53.8197 122.765C53.8197 170.141 89.179 207.847 131.966 207.847C174.754 207.847 210.113 170.141 210.113 122.765C210.113 75.3898 174.754 37.6837 131.966 37.6837ZM44.172 122.765C44.172 70.8528 83.1071 28.07 131.966 28.07C180.826 28.07 219.761 70.8528 219.761 122.765C219.761 174.678 180.826 217.461 131.966 217.461C83.1071 217.461 44.172 174.678 44.172 122.765Z" stroke="#F1F1F1" stroke-width="3" stroke-miterlimit="10"/>
<path fill-rule="evenodd" clip-rule="evenodd" d="M38.4876 11.6337C31.3341 11.6337 24.5318 14.4941 19.513 19.513C14.4941 24.5318 11.6337 31.3341 11.6337 38.4876V70.1584C11.6337 72.8187 9.47712 74.9753 6.81685 74.9753C4.15658 74.9753 2 72.8187 2 70.1584V38.4876C2 28.7501 5.89602 19.5058 12.7009 12.7009C19.5058 5.89602 28.7501 2 38.4876 2H70.1584C72.8187 2 74.9753 4.15658 74.9753 6.81685C74.9753 9.47712 72.8187 11.6337 70.1584 11.6337H38.4876ZM192.025 6.81685C192.025 4.15658 194.181 2 196.842 2H228.512C238.25 2 247.494 5.89602 254.299 12.7009C261.104 19.5058 265 28.7501 265 38.4876V70.1584C265 72.8187 262.843 74.9753 260.183 74.9753C257.523 74.9753 255.366 72.8187 255.366 70.1584V38.4876C255.366 31.3341 252.506 24.5318 247.487 19.513C242.468 14.4941 235.666 11.6337 228.512 11.6337H196.842C194.181 11.6337 192.025 9.47712 192.025 6.81685ZM6.81685 192.025C9.47712 192.025 11.6337 194.181 11.6337 196.842V228.512C11.6337 235.666 14.4941 242.468 19.513 247.487C24.5318 252.506 31.3341 255.366 38.4876 255.366H70.1584C72.8187 255.366 74.9753 257.523 74.9753 260.183C74.9753 262.843 72.8187 265 70.1584 265H38.4876C28.7501 265 19.5058 261.104 12.7009 254.299C5.89602 247.494 2 238.25 2 228.512V196.842C2 194.181 4.15658 192.025 6.81685 192.025ZM260.183 192.025C262.843 192.025 265 194.181 265 196.842V228.512C265 238.25 261.104 247.494 254.299 254.299C247.494 261.104 238.25 265 228.512 265H196.842C194.181 265 192.025 262.843 192.025 260.183C192.025 257.523 194.181 255.366 196.842 255.366H228.512C235.666 255.366 242.468 252.506 247.487 247.487C252.506 242.468 255.366 235.666 255.366 228.512V196.842C255.366 194.181 257.523 192.025 260.183 192.025Z" stroke="#F1F1F1" stroke-width="3" stroke-linecap="round" stroke-linejoin="round"/>
<path fill-rule="evenodd" clip-rule="evenodd" d="M89.0277 117.419C88.1922 117.419 87.5149 118.096 87.5149 118.931C87.5149 119.767 88.1922 120.444 89.0277 120.444C89.8632 120.444 90.5405 119.767 90.5405 118.931C90.5405 118.096 89.8632 117.419 89.0277 117.419ZM77.9096 118.931C77.9096 112.791 82.8873 107.813 89.0277 107.813C95.168 107.813 100.146 112.791 100.146 118.931C100.146 125.072 95.168 130.05 89.0277 130.05C82.8873 130.05 77.9096 125.072 77.9096 118.931Z" stroke="#F1F1F1" stroke-width="3"/>
<path fill-rule="evenodd" clip-rule="evenodd" d="M177.972 117.419C177.137 117.419 176.459 118.096 176.459 118.931C176.459 119.767 177.137 120.444 177.972 120.444C178.808 120.444 179.485 119.767 179.485 118.931C179.485 118.096 178.808 117.419 177.972 117.419ZM166.854 118.931C166.854 112.791 171.832 107.813 177.972 107.813C184.113 107.813 189.09 112.791 189.09 118.931C189.09 125.072 184.113 130.05 177.972 130.05C171.832 130.05 166.854 125.072 166.854 118.931Z" stroke="#F1F1F1" stroke-width="3"/>
</svg>
