<?xml version="1.0" encoding="UTF-8" standalone="no"?>
<!-- Created with Inkscape (http://www.inkscape.org/) -->

<svg
   width="60mm"
   height="60mm"
   viewBox="0 0 60 60"
   version="1.1"
   id="svg1"
   xml:space="preserve"
   inkscape:version="1.3 (0e150ed6c4, 2023-07-21)"
   sodipodi:docname="icon.svg"
   xmlns:inkscape="http://www.inkscape.org/namespaces/inkscape"
   xmlns:sodipodi="http://sodipodi.sourceforge.net/DTD/sodipodi-0.dtd"
   xmlns="http://www.w3.org/2000/svg"
   xmlns:svg="http://www.w3.org/2000/svg"><sodipodi:namedview
     id="namedview1"
     pagecolor="#ffffff"
     bordercolor="#666666"
     borderopacity="1.0"
     inkscape:showpageshadow="2"
     inkscape:pageopacity="0.0"
     inkscape:pagecheckerboard="0"
     inkscape:deskcolor="#d1d1d1"
     inkscape:document-units="mm"
     inkscape:zoom="1"
     inkscape:cx="237.5"
     inkscape:cy="142.5"
     inkscape:current-layer="layer1"
     showguides="true"
     showgrid="false" /><defs
     id="defs1" /><g
     inkscape:label="Layer 1"
     inkscape:groupmode="layer"
     id="layer1"
     transform="translate(-163.93993,-86.587502)"><path
       id="rect3-8-53-3-7"
       style="fill:#001400;fill-opacity:1;stroke:none;stroke-width:0.1;stroke-linecap:round;stroke-linejoin:round;stroke-opacity:1"
       d="m 197.22478,89.972577 c -1.47117,0.04444 -2.97674,1.047169 -5.68028,3.615283 -2.82695,2.685358 -4.17678,3.51432 -7.82484,4.804358 -2.88219,1.019219 -2.23879,0.291781 1.45521,-1.645377 2.3807,-1.248459 7.69305,-5.557594 7.82381,-6.346383 0.11885,-0.716929 -3.47228,-0.04475 -6.32313,1.183907 -9.68526,4.174136 -15.14362,15.069635 -12.54807,25.047565 0.88089,3.38634 0.97176,3.44147 2.70784,1.64899 1.01867,-1.05176 2.19486,-1.90441 3.63027,-2.6324 1.16778,-0.59225 2.75032,-1.44699 3.5171,-1.8991 0.76678,-0.45211 1.44919,-0.82166 1.51619,-0.82166 0.67614,0 7.46212,-6.05914 8.10028,-7.23263 0.14526,-0.26709 0.31849,-0.43144 0.38499,-0.36484 0.22945,0.22945 -2.10815,3.50051 -3.71347,5.19607 -2.81147,2.96948 -2.84788,2.99576 -9.00152,6.50037 -1.7957,1.02268 -3.39375,2.55199 -4.14342,3.96514 -0.73497,1.38543 -0.57174,1.88204 1.40457,4.27364 1.36682,1.65404 1.62794,1.62494 1.82469,-0.20516 0.25015,-2.32678 1.40028,-3.64092 4.99867,-5.71128 6.72577,-3.86971 9.90461,-7.72516 12.16618,-14.75568 1.81356,-5.637772 2.50628,-7.170764 4.223,-9.342582 1.54284,-1.951858 1.94662,-1.640709 2.38331,1.837097 0.23024,1.833638 1.12583,3.472495 2.65462,4.856035 0.57028,0.51609 0.57048,0.51591 -0.30799,1.23765 -0.79318,0.65166 -0.84512,0.77636 -0.53278,1.2857 0.26082,0.42531 0.27186,0.65357 0.0444,0.9276 -0.16592,0.19989 -0.22713,0.59737 -0.13643,0.88315 0.0907,0.28578 0.0312,0.6021 -0.13177,0.7028 -0.19286,0.11918 -0.23559,0.62207 -0.12299,1.44074 0.17298,1.25773 0.17274,1.25793 -0.90537,1.6893 -0.63802,0.25529 -1.07797,0.60545 -1.07797,0.85834 0,0.28092 0.1434,0.37277 0.41857,0.26717 0.23018,-0.0883 0.83078,-0.16071 1.33481,-0.16071 1.21175,0 2.21263,-0.97707 2.22363,-2.17093 0.007,-0.72066 0.0545,-0.79158 0.27751,-0.40876 0.14839,0.25475 0.23438,1.02441 0.19068,1.71049 -0.0864,1.35821 0.43583,1.80382 1.28675,1.09761 0.66424,-0.55128 0.34057,-3.93496 -0.56018,-5.85443 -0.88924,-1.89498 -0.74877,-2.58809 0.19741,-0.97358 1.25478,2.14113 1.58172,3.38916 1.61282,6.15518 0.0319,2.83668 0.51485,3.77772 1.35961,2.651 1.49173,-1.98967 0.22608,-8.34539 -2.30994,-11.59929 -3.41476,-4.381392 -4.19483,-6.121614 -1.45521,-3.246827 1.07178,1.124649 2.17744,2.491967 2.4567,3.038577 0.27926,0.54661 0.64877,1.14517 0.82114,1.33015 0.17237,0.18499 0.38815,0.60361 0.47955,0.93017 0.0914,0.32656 0.27178,0.83188 0.40101,1.12293 1.01382,2.28322 1.41296,8.23607 0.77102,11.49904 -0.32243,1.63888 -0.32213,1.63906 -0.9648,0.36173 -1.50276,-2.98682 -4.30513,-4.65951 -8.05739,-4.80901 -3.54351,-0.14119 -4.85899,0.38177 -10.53786,4.18941 -1.67349,1.12206 -4.12535,2.59635 -5.44876,3.27629 -6.45376,3.31579 -8.11026,8.21527 -3.64164,10.77195 1.73024,0.98995 1.88017,0.9114 1.27692,-0.66818 -0.34754,-0.90997 -0.417,-1.58145 -0.28267,-2.72438 0.24718,-2.10313 0.68782,-2.42863 0.68782,-0.50798 0,2.92768 2.45909,5.75551 5.68854,6.54172 1.01771,0.24772 4.05468,0.29649 5.1263,0.0822 1.09626,-0.21925 1.02906,-0.60696 -0.25942,-1.49862 -5.02541,-3.4777 0.33444,-11.75717 6.42907,-9.93117 2.44366,0.73213 4.43652,3.54941 4.0814,5.77019 -0.25188,1.57518 0.44658,1.40227 2.38694,-0.59118 9.63102,-9.8946 7.56447,-26.78876 -4.11448,-33.633603 -4.52887,-2.654298 -6.92526,-2.082452 -11.38897,2.717663 -3.084,3.316437 -3.99933,3.970348 -8.13955,5.81412 -5.33506,2.37586 -8.0587,6.9538 -6.33192,10.64224 0.15955,0.34079 -0.16229,0.55171 -1.65468,1.08365 -2.23277,0.79583 -2.41012,0.68485 -2.39572,-1.49397 0.0106,-1.60072 0.0105,-1.60041 0.42892,-0.80666 1.29421,2.45493 3.36477,2.67967 2.35179,0.25528 -1.84193,-4.40835 0.63872,-8.37057 6.72001,-10.73371 4.33626,-1.685038 5.063,-2.171339 8.08994,-5.410006 1.9333,-2.068528 3.20996,-3.193641 4.22558,-3.72432 1.60802,-0.840209 1.74026,-1.031525 0.86093,-1.243335 -0.35014,-0.08434 -0.68782,-0.124978 -1.02732,-0.114722 z m -1.97404,10.106873 c 0.0988,0.0471 -0.40764,0.824 -1.51877,2.32648 -2.18579,2.95561 -4.61393,5.08436 -8.38347,7.34993 -2.57304,1.54645 -2.64067,1.56013 -2.64067,0.53847 0,-2.21729 1.53642,-3.68898 5.5485,-5.31492 2.85066,-1.15526 3.9134,-1.84652 5.66477,-3.68298 0.80961,-0.84894 1.25282,-1.25361 1.32964,-1.21698 z m 6.9112,14.7159 c 4.85493,-0.0474 9.53796,4.10463 8.03879,8.40517 -0.28818,0.82666 -0.28818,0.82645 -1.12448,-0.82062 -3.00452,-5.91731 -12.10271,-5.0377 -15.80679,1.52807 -0.81019,1.43611 -1.04252,5.19128 -0.39842,6.43682 0.54511,1.05412 0.21103,1.09054 -1.43196,0.15502 -2.8948,-1.64829 -3.83687,-3.82969 -2.7652,-6.40219 2.04256,-4.90309 14.54361,-8.70986 18.08313,-5.50664 0.60463,0.54715 0.9866,0.53447 1.20716,-0.0403 0.74543,-1.94255 -6.2084,-3.79884 -9.77821,-2.61017 -0.29104,0.0969 0.007,-0.0793 0.66146,-0.39171 1.06481,-0.50798 2.19415,-0.7425 3.31452,-0.75344 z m -10.17354,6.86366 c -2.56388,0 -4.07636,4.78753 -2.19418,6.94531 0.53567,0.61413 1.38028,0.60266 1.38028,-0.0186 0,-0.2648 -0.29767,-0.74045 -0.66146,-1.05678 -1.35998,-1.18248 -0.68697,-3.76931 1.18184,-4.5434 0.91681,-0.37975 1.12621,-1.32653 0.29352,-1.32653 z m 9.23613,0.61185 c -3.79825,0.003 -7.06169,4.60985 -4.09174,7.45794 1.20789,1.15832 1.5903,1.32958 3.26285,1.46193 5.43192,0.42983 7.6981,-6.01234 2.95744,-8.40724 -0.70389,-0.3556 -1.42517,-0.51319 -2.12855,-0.51263 z m -0.17983,2.82773 c 1.84201,0 2.48449,2.90902 0.8108,3.67161 -1.29355,0.58938 -3.00808,-0.38973 -3.00808,-1.71824 0,-0.7587 1.34378,-1.95337 2.19728,-1.95337 z m 9.96735,12.96045 c -1.41404,0 -2.57194,1.15842 -2.57194,2.57246 0,1.41402 1.1579,2.57245 2.57194,2.57245 1.41403,0 2.57245,-1.15843 2.57245,-2.57245 0,-1.41404 -1.15842,-2.57246 -2.57245,-2.57246 z m -42.97361,0.10336 c -0.30332,0 -0.54725,0.24446 -0.54725,0.54777 v 3.84317 c 0,0.30331 0.24393,0.54726 0.54725,0.54726 0.30331,0 0.54777,-0.24395 0.54777,-0.54726 v -1.50998 h 2.2624 v 1.50998 c 0,0.30331 0.24446,0.54726 0.54777,0.54726 0.30332,0 0.54725,-0.24395 0.54725,-0.54726 v -1.50998 -0.89504 -1.43815 c 0,-0.30331 -0.24393,-0.54777 -0.54725,-0.54777 -0.30331,0 -0.54777,0.24446 -0.54777,0.54777 v 1.43815 h -2.2624 v -1.43815 c 0,-0.30331 -0.24446,-0.54777 -0.54777,-0.54777 z m 13.84774,0 c -0.30332,0 -0.54726,0.24393 -0.54726,0.54725 v 3.84318 c 0,0.30331 0.24394,0.54777 0.54726,0.54777 0.30331,0 0.54777,-0.24446 0.54777,-0.54777 v -3.84318 c 0,-0.30332 -0.24446,-0.54725 -0.54777,-0.54725 z m 23.55722,0 c -0.30332,0 -0.54726,0.24393 -0.54726,0.54725 v 3.84318 c 0,0.30331 0.24394,0.54777 0.54726,0.54777 0.30331,0 0.54777,-0.24446 0.54777,-0.54777 v -3.84318 c 0,-0.30332 -0.24446,-0.54725 -0.54777,-0.54725 z m 11.03756,0 c -0.30332,0 -0.54777,0.24446 -0.54777,0.54777 v 3.84317 c 0,0.30331 0.24445,0.54726 0.54777,0.54726 0.30331,0 0.54726,-0.24395 0.54726,-0.54726 v -2.53008 l 2.37195,2.85513 c 0.0132,0.0179 0.0272,0.0351 0.0424,0.0512 9.3e-4,9.8e-4 0.002,0.002 0.003,0.003 0.0995,0.10374 0.23957,0.16795 0.39533,0.16795 0.30332,0 0.54777,-0.24395 0.54777,-0.54726 v -3.84317 c 0,-0.30331 -0.24445,-0.54777 -0.54777,-0.54777 -0.30331,0 -0.54726,0.24446 -0.54726,0.54777 v 2.53007 l -2.37195,-2.85512 c -0.012,-0.0163 -0.0249,-0.0322 -0.0387,-0.047 l -0.006,-0.007 -5.2e-4,5.2e-4 c -0.0995,-0.10386 -0.23894,-0.16898 -0.39481,-0.16898 z m -30.93351,0.0336 c -0.30332,0 -0.54777,0.24394 -0.54777,0.54725 v 3.77651 c 0,0.30332 0.24445,0.54726 0.54777,0.54726 0.30331,0 0.54726,-0.24394 0.54726,-0.54726 v -0.74724 h 1.2547 l -0.002,0.001 0.56741,0.98341 0.046,0.0801 0.0382,0.0661 a 0.32753735,0.32753735 0 0 0 5.2e-4,5.2e-4 0.32753735,0.32753735 0 0 0 0.28319,0.1633 h 0.18965 0.0667 0.25218 a 0.32753735,0.32753735 0 0 0 0.32763,-0.32763 0.32753735,0.32753735 0 0 0 -0.0331,-0.14366 0.32753735,0.32753735 0 0 0 -0.001,-0.003 l -0.001,-0.003 a 0.32753735,0.32753735 0 0 0 -0.003,-0.005 0.32753735,0.32753735 0 0 0 -0.004,-0.006 l -0.002,-0.002 -0.0646,-0.11214 -0.53382,-0.92501 c 0.53773,-0.30695 0.90382,-0.88557 0.90382,-1.54409 0,-0.97592 -0.8033,-1.77922 -1.77922,-1.77922 z m 8.84391,0.0677 -5.2e-4,0.002 c -0.006,1.5e-4 -0.011,10e-4 -0.0165,0.002 -0.006,3.5e-4 -0.0124,4.9e-4 -0.0186,0.001 -0.01,9.1e-4 -0.02,0.002 -0.03,0.004 -0.009,0.001 -0.0172,0.003 -0.0258,0.005 -0.009,0.002 -0.0183,0.003 -0.0274,0.006 -0.008,0.002 -0.0162,0.004 -0.0243,0.007 -0.0103,0.003 -0.0204,0.007 -0.0305,0.0103 -0.006,0.002 -0.0112,0.004 -0.0171,0.007 -0.011,0.004 -0.0218,0.009 -0.0326,0.0145 -0.004,0.002 -0.008,0.003 -0.0119,0.005 -0.003,0.001 -0.005,0.003 -0.008,0.005 -0.007,0.004 -0.0135,0.007 -0.0202,0.0114 -0.0107,0.006 -0.0213,0.0127 -0.0315,0.0196 -0.002,0.001 -0.003,0.002 -0.005,0.004 -0.0866,0.0602 -0.15142,0.14186 -0.19068,0.2341 l -1.83297,3.60185 c -0.13757,0.27032 -0.031,0.5988 0.23927,0.73639 0.27031,0.13759 0.59882,0.0305 0.73639,-0.23978 l 0.2899,-0.56999 h 2.14354 l 0.2899,0.56999 c 0.13757,0.27032 0.46608,0.37736 0.73639,0.23978 0.27031,-0.1376 0.37735,-0.46606 0.23978,-0.73639 l -1.83193,-3.60082 c -0.0396,-0.0951 -0.10726,-0.17961 -0.19689,-0.24081 -0.01,-0.007 -0.0201,-0.013 -0.0305,-0.0191 -0.007,-0.004 -0.0143,-0.008 -0.0217,-0.0124 -0.003,-0.001 -0.005,-0.003 -0.008,-0.005 -0.005,-0.003 -0.01,-0.004 -0.015,-0.007 -0.009,-0.004 -0.0171,-0.008 -0.0258,-0.0119 -0.008,-0.003 -0.0159,-0.006 -0.0238,-0.009 -0.009,-0.003 -0.0183,-0.006 -0.0274,-0.009 -0.009,-0.003 -0.0167,-0.005 -0.0253,-0.007 -0.008,-0.002 -0.0165,-0.004 -0.0248,-0.006 -0.009,-0.002 -0.0189,-0.003 -0.0284,-0.005 -0.009,-0.001 -0.0182,-0.002 -0.0274,-0.003 -0.007,-6.3e-4 -0.0139,-10e-4 -0.0207,-0.002 -0.0102,-5.8e-4 -0.0203,-5.2e-4 -0.0305,-5.2e-4 -0.005,0 -0.009,-6.4e-4 -0.0134,-5.2e-4 z m -17.87281,0.002 c -0.005,1.4e-4 -0.011,7.6e-4 -0.0165,10e-4 -0.007,3.7e-4 -0.0134,5.5e-4 -0.0202,0.002 -0.009,8.7e-4 -0.0187,0.002 -0.0279,0.003 -0.009,10e-4 -0.0183,0.003 -0.0274,0.005 -0.009,0.002 -0.0173,0.004 -0.0258,0.006 -0.009,0.002 -0.0179,0.005 -0.0269,0.008 -0.008,0.002 -0.0162,0.005 -0.0243,0.008 -0.008,0.003 -0.0166,0.006 -0.0248,0.009 -0.009,0.004 -0.0173,0.008 -0.0258,0.0119 -0.005,0.002 -0.0104,0.004 -0.0155,0.007 -0.003,10e-4 -0.005,0.003 -0.008,0.005 -0.007,0.004 -0.0145,0.008 -0.0217,0.0124 -0.0104,0.006 -0.0206,0.0124 -0.0305,0.0191 l -5.1e-4,5.2e-4 c -3.9e-4,2.7e-4 -6.8e-4,7.9e-4 -10e-4,0.001 -0.0879,0.0604 -0.15414,0.14249 -0.19378,0.23565 l -1.83297,3.60185 c -0.13756,0.27032 -0.0305,0.59879 0.23978,0.73638 0.27032,0.1376 0.5983,0.0305 0.73587,-0.23977 l 0.28991,-0.56999 h 2.14354 l 0.29042,0.56999 c 0.13756,0.27033 0.46556,0.37737 0.73587,0.23977 0.27031,-0.13759 0.37734,-0.46606 0.23978,-0.73638 l -1.83296,-3.60185 c -0.0446,-0.10482 -0.1223,-0.19592 -0.22738,-0.25735 -0.007,-0.004 -0.0134,-0.008 -0.0202,-0.0114 -0.003,-0.001 -0.005,-0.003 -0.008,-0.005 -0.004,-0.002 -0.008,-0.003 -0.0119,-0.005 -0.0107,-0.005 -0.0215,-0.01 -0.0326,-0.0145 -0.006,-0.002 -0.0114,-0.005 -0.0171,-0.007 -0.0101,-0.004 -0.0202,-0.007 -0.0305,-0.0103 -0.008,-0.002 -0.0162,-0.005 -0.0243,-0.007 -0.009,-0.002 -0.0179,-0.004 -0.0269,-0.006 -0.009,-0.002 -0.0183,-0.003 -0.0274,-0.005 -0.009,-10e-4 -0.0186,-0.002 -0.0279,-0.003 -0.007,-6.3e-4 -0.0134,-0.002 -0.0202,-0.002 -0.0102,-5.7e-4 -0.0203,-5.3e-4 -0.0305,-5.2e-4 -0.005,0 -0.009,-6.4e-4 -0.0134,-5.2e-4 z m 22.46943,0.0315 c -0.30331,0 -0.54777,0.24394 -0.54777,0.54726 0,0.30331 0.24446,0.54777 0.54777,0.54777 h 1.15393 v 3.0272 c 0,0.30332 0.24393,0.54726 0.54725,0.54726 0.30331,0 0.54777,-0.24394 0.54777,-0.54726 v -3.0272 h 1.15394 c 0.30332,0 0.54777,-0.24446 0.54777,-0.54777 0,-0.30332 -0.24445,-0.54726 -0.54777,-0.54726 z m 12.02407,0.85835 c 0.82225,0 1.47846,0.65414 1.47846,1.4764 0,0.82224 -0.65621,1.47639 -1.47846,1.47639 -0.82226,0 -1.47639,-0.65415 -1.4764,-1.47639 0,-0.82226 0.65414,-1.4764 1.4764,-1.4764 z m -24.91734,0.14159 1.50688,0.015 c 0.38822,0.004 0.68368,0.29545 0.68368,0.68368 0,0.38824 -0.29544,0.68368 -0.68368,0.68368 h -1.50688 z m -9.56273,0.72451 0.62425,1.22628 h -1.2485 z m 17.87281,5.1e-4 0.62374,1.22577 h -1.24747 z" /></g></svg>
